<?xml version="1.0" encoding="utf-8"?>
<!-- Generator: Adobe Illustrator 14.0.0, SVG Export Plug-In . SVG Version: 6.00 Build 43363)  -->
<!DOCTYPE svg PUBLIC "-//W3C//DTD SVG 1.1//EN" "http://www.w3.org/Graphics/SVG/1.1/DTD/svg11.dtd">
<svg version="1.1" id="Layer_1" xmlns="http://www.w3.org/2000/svg" xmlns:xlink="http://www.w3.org/1999/xlink" x="0px" y="0px"
	 width="467px" height="245.704px" viewBox="0 0 467 245.704" enable-background="new 0 0 467 245.704" xml:space="preserve">
<g>
	<g>
		<path fill="#2C6698" d="M237.491,233.225c0-0.144-0.051,0.316-0.15,1.379h-9.265c0.215,0.689,0.617,1.243,1.206,1.659
			c0.589,0.417,1.242,0.625,1.96,0.625c1.149,0,2.033-0.345,2.65-1.034h3.167c-0.358,1.077-1.095,1.986-2.208,2.726
			s-2.287,1.109-3.522,1.109c-1.724,0-3.204-0.61-4.438-1.831c-1.236-1.221-1.854-2.7-1.854-4.438c0-1.796,0.621-3.318,1.864-4.567
			c1.242-1.25,2.726-1.875,4.449-1.875c1.681,0,3.124,0.618,4.331,1.853C236.888,230.065,237.491,231.53,237.491,233.225z
			 M234.604,232.062c-0.201-0.675-0.606-1.225-1.217-1.648c-0.611-0.424-1.289-0.636-2.036-0.636s-1.433,0.216-2.058,0.646
			s-1.045,0.978-1.261,1.638H234.604z"/>
		<path fill="#2C6698" d="M249.923,239.301h-2.865v-6.205c0-2.212-0.79-3.318-2.37-3.318c-0.861,0-1.508,0.316-1.939,0.948
			c-0.373,0.561-0.56,1.293-0.56,2.197v6.378h-2.866v-11.937h2.649v1.12c0.877-1.02,1.976-1.521,3.298-1.508
			c1.321,0.015,2.427,0.478,3.317,1.39s1.336,2.359,1.336,4.342V239.301z"/>
		<path fill="#2C6698" d="M264.272,237.663c0,1.796-0.56,3.275-1.68,4.438c-1.322,1.364-2.902,2.047-4.74,2.047
			c-1.293,0-2.503-0.37-3.631-1.109c-1.128-0.74-1.893-1.685-2.295-2.833h3.254c0.718,0.761,1.616,1.142,2.693,1.142
			c1.048,0,1.936-0.334,2.661-1.002c0.725-0.668,1.088-1.569,1.088-2.704c-1.135,1.365-2.406,2.047-3.813,2.047
			c-1.595,0-3.017-0.625-4.267-1.874c-0.546-0.546-0.98-1.242-1.304-2.09s-0.484-1.688-0.484-2.521c0-1.709,0.595-3.174,1.784-4.396
			c1.189-1.221,2.623-1.831,4.3-1.831s2.938,0.683,3.784,2.047v-1.659h2.649V237.663z M261.623,233.376
			c0-1.006-0.344-1.856-1.03-2.554c-0.687-0.696-1.543-1.045-2.568-1.045c-0.954,0-1.76,0.338-2.418,1.013
			c-0.657,0.676-0.986,1.501-0.986,2.478c0,1.049,0.344,1.915,1.03,2.597c0.687,0.683,1.55,1.023,2.591,1.023
			c0.925,0,1.72-0.355,2.385-1.066C261.29,235.11,261.623,234.295,261.623,233.376z"/>
		<path fill="#2C6698" d="M269.336,225.985h-2.866v-2.606h2.866V225.985z M269.336,239.301h-2.866v-11.937h2.866V239.301z"/>
		<path fill="#2C6698" d="M282.241,239.301h-2.865v-6.205c0-2.212-0.79-3.318-2.37-3.318c-0.861,0-1.508,0.316-1.939,0.948
			c-0.373,0.561-0.56,1.293-0.56,2.197v6.378h-2.866v-11.937h2.65v1.12c0.876-1.02,1.975-1.521,3.297-1.508
			c1.321,0.015,2.427,0.478,3.317,1.39s1.336,2.359,1.336,4.342V239.301z"/>
		<path fill="#2C6698" d="M296.525,233.225c0-0.144-0.05,0.316-0.15,1.379h-9.265c0.215,0.689,0.617,1.243,1.206,1.659
			c0.589,0.417,1.242,0.625,1.961,0.625c1.149,0,2.032-0.345,2.65-1.034h3.167c-0.359,1.077-1.096,1.986-2.208,2.726
			c-1.113,0.739-2.288,1.109-3.523,1.109c-1.724,0-3.203-0.61-4.438-1.831s-1.853-2.7-1.853-4.438c0-1.796,0.621-3.318,1.863-4.567
			c1.242-1.25,2.726-1.875,4.449-1.875c1.681,0,3.124,0.618,4.331,1.853C295.923,230.065,296.525,231.53,296.525,233.225z
			 M293.639,232.062c-0.201-0.675-0.607-1.225-1.218-1.648s-1.289-0.636-2.036-0.636s-1.433,0.216-2.058,0.646
			c-0.624,0.431-1.045,0.978-1.26,1.638H293.639z"/>
		<path fill="#2C6698" d="M310.314,233.225c0-0.144-0.05,0.316-0.15,1.379h-9.265c0.215,0.689,0.617,1.243,1.206,1.659
			c0.589,0.417,1.242,0.625,1.961,0.625c1.149,0,2.032-0.345,2.65-1.034h3.167c-0.359,1.077-1.096,1.986-2.208,2.726
			c-1.113,0.739-2.288,1.109-3.523,1.109c-1.724,0-3.203-0.61-4.438-1.831s-1.853-2.7-1.853-4.438c0-1.796,0.621-3.318,1.863-4.567
			c1.242-1.25,2.726-1.875,4.449-1.875c1.681,0,3.124,0.618,4.331,1.853C309.712,230.065,310.314,231.53,310.314,233.225z
			 M307.428,232.062c-0.201-0.675-0.607-1.225-1.218-1.648s-1.289-0.636-2.036-0.636s-1.433,0.216-2.058,0.646
			c-0.624,0.431-1.045,0.978-1.26,1.638H307.428z"/>
		<path fill="#2C6698" d="M317.576,229.756c-0.689,0-1.271,0.187-1.745,0.561c-0.374,0.287-0.61,0.668-0.711,1.142
			c-0.072,0.288-0.107,0.754-0.107,1.4v6.442h-2.866v-11.937h2.607v1.12c0.358-0.56,0.743-0.951,1.152-1.174
			c0.41-0.223,0.966-0.334,1.67-0.334V229.756z"/>
		<path fill="#2C6698" d="M321.907,225.985h-2.866v-2.606h2.866V225.985z M321.907,239.301h-2.866v-11.937h2.866V239.301z"/>
		<path fill="#2C6698" d="M334.812,239.301h-2.865v-6.205c0-2.212-0.79-3.318-2.37-3.318c-0.861,0-1.508,0.316-1.939,0.948
			c-0.373,0.561-0.56,1.293-0.56,2.197v6.378h-2.866v-11.937h2.65v1.12c0.876-1.02,1.975-1.521,3.297-1.508
			c1.321,0.015,2.427,0.478,3.317,1.39s1.336,2.359,1.336,4.342V239.301z"/>
		<path fill="#2C6698" d="M349.161,237.663c0,1.796-0.56,3.275-1.68,4.438c-1.322,1.364-2.902,2.047-4.74,2.047
			c-1.293,0-2.503-0.37-3.631-1.109c-1.128-0.74-1.893-1.685-2.295-2.833h3.254c0.718,0.761,1.616,1.142,2.693,1.142
			c1.048,0,1.936-0.334,2.661-1.002c0.725-0.668,1.088-1.569,1.088-2.704c-1.135,1.365-2.406,2.047-3.813,2.047
			c-1.595,0-3.017-0.625-4.267-1.874c-0.546-0.546-0.98-1.242-1.304-2.09s-0.484-1.688-0.484-2.521c0-1.709,0.595-3.174,1.784-4.396
			c1.189-1.221,2.623-1.831,4.3-1.831s2.938,0.683,3.784,2.047v-1.659h2.649V237.663z M346.512,233.376
			c0-1.006-0.344-1.856-1.03-2.554c-0.687-0.696-1.543-1.045-2.568-1.045c-0.954,0-1.76,0.338-2.418,1.013
			c-0.657,0.676-0.986,1.501-0.986,2.478c0,1.049,0.344,1.915,1.03,2.597c0.687,0.683,1.55,1.023,2.591,1.023
			c0.925,0,1.72-0.355,2.385-1.066C346.179,235.11,346.512,234.295,346.512,233.376z"/>
		<path fill="#2C6698" d="M368.423,227.364l-6.852,15.923h-3.081l2.197-5.106l-4.374-10.816h3.254l2.736,7.648l2.865-7.648H368.423z
			"/>
		<path fill="#2C6698" d="M381.996,233.354c0,1.738-0.618,3.229-1.854,4.471s-2.735,1.863-4.503,1.863
			c-1.724,0-3.21-0.621-4.46-1.863c-1.249-1.242-1.874-2.726-1.874-4.449c0-1.811,0.628-3.329,1.885-4.558
			c1.257-1.228,2.776-1.842,4.558-1.842c1.752,0,3.231,0.629,4.438,1.886C381.393,230.119,381.996,231.616,381.996,233.354z
			 M379.131,233.376c0-0.991-0.342-1.839-1.023-2.543c-0.683-0.703-1.505-1.056-2.468-1.056c-0.919,0-1.727,0.349-2.424,1.045
			c-0.696,0.697-1.045,1.541-1.045,2.532c0,0.962,0.338,1.792,1.013,2.488c0.675,0.697,1.494,1.045,2.456,1.045
			c0.963,0,1.785-0.33,2.468-0.991C378.789,235.236,379.131,234.396,379.131,233.376z"/>
		<path fill="#2C6698" d="M394.234,239.301h-2.628v-1.314c-0.676,1.135-1.702,1.702-3.081,1.702c-1.939,0-3.397-0.825-4.374-2.478
			c-0.359-0.604-0.539-1.458-0.539-2.564v-7.282h2.866v6.399c0,0.934,0.187,1.666,0.56,2.197c0.417,0.618,1.034,0.927,1.854,0.927
			c1.651,0,2.478-1.12,2.478-3.361v-6.162h2.865V239.301z"/>
		<path fill="#2C6698" d="M401.969,229.756c-0.689,0-1.271,0.187-1.745,0.561c-0.374,0.287-0.61,0.668-0.711,1.142
			c-0.072,0.288-0.107,0.754-0.107,1.4v6.442h-2.866v-11.937h2.607v1.12c0.358-0.56,0.743-0.951,1.152-1.174
			c0.41-0.223,0.966-0.334,1.67-0.334V229.756z"/>
		<path fill="#2C6698" d="M412.268,225.985h-2.866v-2.606h2.866V225.985z M412.268,239.301h-2.866v-11.937h2.866V239.301z"/>
		<path fill="#2C6698" d="M426.639,239.322l-2.65-0.021v-1.25c-0.978,1.092-2.306,1.638-3.986,1.638
			c-1.694,0-3.117-0.653-4.266-1.961c-1.106-1.234-1.659-2.686-1.659-4.352c0-1.738,0.589-3.239,1.767-4.503
			c1.178-1.265,2.593-1.896,4.244-1.896c1.58,0,2.809,0.546,3.685,1.638v-5.235h2.866V239.322z M423.967,233.312
			c0-0.963-0.355-1.792-1.066-2.489c-0.711-0.696-1.541-1.045-2.489-1.045c-0.962,0-1.781,0.359-2.456,1.077
			c-0.675,0.719-1.013,1.53-1.013,2.435c0,1.021,0.342,1.875,1.023,2.564c0.683,0.689,1.512,1.034,2.489,1.034
			c0.962,0,1.788-0.348,2.478-1.045C423.622,235.146,423.967,234.302,423.967,233.312z"/>
		<path fill="#2C6698" d="M440.75,233.225c0-0.144-0.05,0.316-0.15,1.379h-9.265c0.215,0.689,0.617,1.243,1.206,1.659
			c0.589,0.417,1.242,0.625,1.961,0.625c1.149,0,2.032-0.345,2.65-1.034h3.167c-0.359,1.077-1.096,1.986-2.208,2.726
			c-1.113,0.739-2.288,1.109-3.523,1.109c-1.724,0-3.203-0.61-4.438-1.831s-1.853-2.7-1.853-4.438c0-1.796,0.621-3.318,1.863-4.567
			c1.242-1.25,2.726-1.875,4.449-1.875c1.681,0,3.124,0.618,4.331,1.853C440.147,230.065,440.75,231.53,440.75,233.225z
			 M437.863,232.062c-0.201-0.675-0.607-1.225-1.218-1.648s-1.289-0.636-2.036-0.636s-1.433,0.216-2.058,0.646
			c-0.624,0.431-1.045,0.978-1.26,1.638H437.863z"/>
		<path fill="#2C6698" d="M454.691,239.301h-2.629v-1.638c-0.388,0.503-0.897,0.941-1.529,1.314
			c-0.834,0.474-1.702,0.711-2.607,0.711c-1.71,0-3.117-0.617-4.223-1.853c-1.077-1.192-1.616-2.687-1.616-4.481
			c0-1.767,0.567-3.271,1.702-4.515c1.135-1.242,2.55-1.863,4.244-1.863c0.819,0,1.591,0.184,2.316,0.55s1.296,0.88,1.713,1.54
			v-1.702h2.629V239.301z M451.977,233.312c0-1.006-0.32-1.846-0.959-2.521c-0.64-0.675-1.469-1.013-2.488-1.013
			c-1.077,0-1.943,0.353-2.597,1.056c-0.653,0.704-0.98,1.573-0.98,2.607c0,0.962,0.345,1.777,1.034,2.445s1.53,1.002,2.521,1.002
			c1.063,0,1.91-0.352,2.542-1.056C451.667,235.172,451.977,234.331,451.977,233.312z"/>
		<path fill="#2C6698" d="M464.688,235.595c0,1.164-0.431,2.137-1.292,2.92c-0.862,0.783-1.875,1.174-3.038,1.174
			c-1.235,0-2.263-0.401-3.081-1.206c-0.819-0.805-1.229-1.781-1.229-2.931h2.931c0.172,0.891,0.675,1.336,1.508,1.336
			c0.373,0,0.689-0.101,0.948-0.302s0.388-0.467,0.388-0.797c0-0.574-0.316-0.977-0.948-1.207l-2.392-0.861
			c-0.359-0.13-0.726-0.396-1.099-0.798c-0.604-0.632-0.905-1.379-0.905-2.24c0-1.063,0.385-1.946,1.153-2.65
			c0.768-0.703,1.72-1.056,2.854-1.056c1.034,0,1.939,0.359,2.715,1.077c0.775,0.719,1.163,1.58,1.163,2.586h-2.801
			c-0.101-0.574-0.467-0.862-1.099-0.862c-0.747,0-1.12,0.331-1.12,0.991c0,0.445,0.309,0.769,0.927,0.97l2.046,0.668
			C463.897,232.923,464.688,233.986,464.688,235.595z"/>
	</g>
	<g>
		<g id="_105324072_5_">
			<path id="_105324168_5_" fill="#2C6698" d="M159.28,85.591c-1.875,3.032-4.188,5.767-6.85,8.113
				c-4.679,4.207-10.481,7.189-16.899,8.446v2.346c0.598,14.485,6.156,29.409,16.678,44.769H137.18
				c-4.002-6.652-7.28-14.104-9.837-22.351c-2.556,8.247-5.835,15.697-9.837,22.351h-15.031
				c11.24-16.404,16.816-32.313,16.733-47.721c-5.348-1.47-10.188-4.157-14.214-7.744c-2.712-2.373-5.067-5.147-6.968-8.228
				l9.179-9.18c1.438,3.358,3.639,6.312,6.386,8.641c4.099,3.375,9.347,5.403,15.069,5.403s10.97-2.028,15.069-5.403
				c2.742-2.324,4.94-5.269,6.375-8.619L159.28,85.591L159.28,85.591z"/>
			<circle id="_105324096_5_" fill="#2C6698" cx="128.659" cy="69.237" r="14.977"/>
		</g>
		<path id="path1021_5_" d="M318.207,181.373v5.729c0,0.905-0.205,1.586-0.615,2.037c-0.415,0.453-0.954,0.679-1.629,0.679
			c-0.654,0-1.184-0.226-1.588-0.679c-0.404-0.451-0.609-1.132-0.609-2.037v-6.866c0-1.09-0.037-1.93-0.113-2.528
			c-0.07-0.599-0.27-1.095-0.599-1.476c-0.323-0.384-0.841-0.577-1.548-0.577c-1.41,0-2.339,0.484-2.786,1.454
			c-0.447,0.966-0.674,2.355-0.674,4.167v5.826c0,0.895-0.205,1.574-0.609,2.031c-0.404,0.459-0.935,0.685-1.599,0.685
			c-0.652,0-1.187-0.226-1.603-0.685c-0.415-0.457-0.626-1.137-0.626-2.031v-12.332c0-0.808,0.189-1.428,0.562-1.849
			s0.868-0.63,1.478-0.63c0.588,0,1.078,0.199,1.479,0.592c0.39,0.394,0.591,0.938,0.591,1.634v0.409
			c0.744-0.895,1.548-1.552,2.399-1.973c0.853-0.421,1.798-0.631,2.845-0.631c1.084,0,2.018,0.216,2.797,0.647
			c0.776,0.431,1.418,1.084,1.926,1.956c0.728-0.884,1.504-1.536,2.338-1.962c0.83-0.426,1.752-0.642,2.761-0.642
			c1.179,0,2.192,0.233,3.045,0.695c0.852,0.464,1.488,1.128,1.909,1.989c0.369,0.776,0.553,2.005,0.553,3.683v8.412
			c0,0.905-0.205,1.586-0.615,2.037c-0.406,0.453-0.951,0.679-1.626,0.679c-0.652,0-1.187-0.226-1.602-0.685
			c-0.416-0.457-0.623-1.137-0.623-2.031v-7.249c0-0.928-0.041-1.665-0.122-2.226c-0.08-0.556-0.288-1.025-0.632-1.406
			c-0.352-0.378-0.875-0.566-1.581-0.566c-0.572,0-1.111,0.167-1.618,0.507c-0.511,0.334-0.903,0.786-1.189,1.357
			C318.363,178.242,318.207,179.53,318.207,181.373L318.207,181.373z"/>
		<path id="path1023_5_" d="M353.854,181.055c0,1.283-0.2,2.469-0.599,3.552c-0.405,1.084-0.982,2.016-1.742,2.798
			c-0.752,0.776-1.659,1.374-2.711,1.789c-1.057,0.415-2.235,0.625-3.552,0.625c-1.31,0-2.478-0.21-3.524-0.63
			c-1.04-0.421-1.941-1.025-2.704-1.812c-0.766-0.782-1.343-1.708-1.736-2.776c-0.394-1.071-0.594-2.253-0.594-3.546
			c0-1.304,0.2-2.501,0.6-3.584c0.404-1.084,0.976-2.01,1.723-2.781c0.744-0.766,1.65-1.357,2.712-1.773
			c1.069-0.415,2.236-0.626,3.524-0.626c1.306,0,2.487,0.211,3.552,0.632c1.063,0.421,1.975,1.023,2.729,1.8
			c0.759,0.782,1.335,1.708,1.729,2.782C353.654,178.575,353.854,179.762,353.854,181.055L353.854,181.055z M349.526,181.055
			c0-1.757-0.389-3.125-1.159-4.106c-0.774-0.976-1.811-1.466-3.116-1.466c-0.846,0-1.585,0.221-2.224,0.656
			c-0.642,0.437-1.138,1.079-1.483,1.931c-0.351,0.856-0.522,1.849-0.522,2.985c0,1.126,0.172,2.107,0.512,2.954
			c0.345,0.84,0.831,1.487,1.467,1.935c0.64,0.448,1.39,0.668,2.251,0.668c1.306,0,2.342-0.489,3.116-1.477
			C349.138,184.153,349.526,182.79,349.526,181.055L349.526,181.055z"/>
		<path id="path1025_5_" d="M366.332,168.346v6.586c0.809-0.846,1.637-1.487,2.479-1.935c0.841-0.447,1.887-0.674,3.127-0.674
			c1.433,0,2.688,0.34,3.768,1.02c1.081,0.678,1.918,1.665,2.512,2.952c0.598,1.289,0.895,2.819,0.895,4.588
			c0,1.304-0.168,2.5-0.496,3.588c-0.334,1.091-0.814,2.038-1.446,2.836c-0.636,0.805-1.398,1.418-2.3,1.854
			c-0.899,0.437-1.893,0.657-2.975,0.657c-0.663,0-1.288-0.08-1.876-0.236c-0.583-0.157-1.079-0.367-1.495-0.626
			c-0.408-0.254-0.757-0.523-1.048-0.797c-0.287-0.27-0.67-0.68-1.144-1.23v0.427c0,0.808-0.194,1.423-0.583,1.838
			c-0.394,0.415-0.89,0.625-1.488,0.625c-0.609,0-1.098-0.21-1.46-0.625c-0.36-0.415-0.544-1.03-0.544-1.838v-18.821
			c0-0.874,0.178-1.535,0.528-1.983c0.355-0.447,0.845-0.669,1.476-0.669c0.664,0,1.176,0.216,1.532,0.642
			C366.153,166.95,366.332,167.558,366.332,168.346z M366.537,181.152c0,1.713,0.393,3.033,1.175,3.956
			c0.785,0.921,1.815,1.379,3.089,1.379c1.088,0,2.019-0.47,2.807-1.412c0.782-0.943,1.176-2.291,1.176-4.053
			c0-1.138-0.163-2.112-0.491-2.933c-0.322-0.823-0.787-1.46-1.392-1.907c-0.599-0.448-1.297-0.669-2.1-0.669
			c-0.82,0-1.554,0.221-2.195,0.669c-0.64,0.447-1.147,1.1-1.514,1.944C366.72,178.975,366.537,179.981,366.537,181.152
			L366.537,181.152z"/>
		<path id="path1027_5_" d="M391.823,174.738v12.461c0,0.863-0.205,1.514-0.615,1.957c-0.41,0.441-0.93,0.662-1.562,0.662
			c-0.636,0-1.148-0.226-1.542-0.679c-0.393-0.453-0.593-1.099-0.593-1.94v-12.332c0-0.857,0.2-1.498,0.593-1.93
			c0.394-0.432,0.906-0.647,1.542-0.647c0.632,0,1.151,0.216,1.562,0.647S391.823,173.972,391.823,174.738z M389.689,170.286
			c-0.598,0-1.11-0.184-1.536-0.556c-0.427-0.365-0.642-0.889-0.642-1.558c0-0.615,0.221-1.115,0.657-1.509s0.944-0.594,1.521-0.594
			c0.562,0,1.059,0.179,1.49,0.54c0.428,0.356,0.644,0.878,0.644,1.563c0,0.663-0.21,1.18-0.632,1.552
			C390.773,170.097,390.272,170.286,389.689,170.286z"/>
		<path id="path1029_5_" d="M400.89,187.199v-18.697c0-0.861,0.193-1.514,0.576-1.957c0.381-0.441,0.898-0.663,1.557-0.663
			c0.652,0,1.176,0.222,1.581,0.658c0.397,0.437,0.598,1.088,0.598,1.962v18.697c0,0.874-0.205,1.525-0.609,1.962
			s-0.928,0.657-1.569,0.657c-0.637,0-1.146-0.226-1.54-0.679S400.89,188.041,400.89,187.199z"/>
		<path id="path1031_5_" d="M426.108,182.112h-8.43c0.011,0.979,0.21,1.843,0.594,2.591c0.383,0.75,0.895,1.312,1.532,1.688
			c0.635,0.382,1.342,0.57,2.105,0.57c0.517,0,0.987-0.06,1.413-0.184c0.426-0.117,0.841-0.308,1.24-0.566
			c0.404-0.257,0.768-0.532,1.102-0.829c0.341-0.296,0.777-0.695,1.317-1.202c0.221-0.188,0.533-0.286,0.944-0.286
			c0.441,0,0.802,0.124,1.078,0.367c0.267,0.242,0.407,0.582,0.407,1.024c0,0.388-0.153,0.847-0.456,1.368
			c-0.307,0.518-0.766,1.02-1.386,1.499c-0.615,0.479-1.387,0.878-2.317,1.191c-0.933,0.318-2.006,0.474-3.215,0.474
			c-2.769,0-4.926-0.787-6.46-2.365c-1.538-1.579-2.306-3.725-2.306-6.431c0-1.271,0.186-2.458,0.569-3.546
			c0.378-1.09,0.933-2.021,1.655-2.804c0.728-0.775,1.623-1.374,2.688-1.789c1.063-0.415,2.244-0.626,3.536-0.626
			c1.688,0,3.13,0.356,4.333,1.068c1.208,0.712,2.108,1.627,2.713,2.753c0.596,1.128,0.897,2.275,0.897,3.445
			c0,1.083-0.31,1.783-0.931,2.107C428.114,181.95,427.236,182.112,426.108,182.112L426.108,182.112z M417.679,179.664h7.815
			c-0.103-1.471-0.5-2.576-1.189-3.305c-0.69-0.731-1.597-1.098-2.724-1.098c-1.076,0-1.955,0.371-2.646,1.108
			C418.245,177.115,417.825,178.214,417.679,179.664L417.679,179.664z"/>
		<polygon id="polygon1033_5_" points="441.482,141.286 441.482,169.915 439.658,169.915 439.658,141.286 		"/>
		<polygon id="polygon1035_5_" points="318.162,158.468 462.16,158.468 462.16,160.291 318.162,160.291 		"/>
		<polygon id="polygon1037_5_" points="227.343,158.468 268.658,158.468 268.658,160.291 227.343,160.291 		"/>
		<circle id="circle1039_5_" cx="462.16" cy="159.378" r="2.405"/>
		<circle id="circle1041_5_" cx="440.57" cy="141.285" r="2.405"/>
		<path id="path1043_5_" d="M29.973,59.17L93.586,5.792c7.5-6.291,18.823-6.631,23.591,0.429l40.336,59.72l0,0l-41.542-48.96
			c-2.554-3.008-7.796-1.486-10.221,0.74l-60.658,55.74c-2.527,2.12-5.031,6.924-2.505,9.934l93.086,110.233
			c2.54,3.009,7.556,1.211,10.22-0.74l49.678-36.395h-0.002l-43.586,40.701c-7.143,6.67-17.917,5.923-23.59-0.429L26.299,82.476
			c-5.673-6.352-3.824-17.015,3.675-23.305H29.973z"/>
		<path id="path1045_5_" fill="#FFFFFF" d="M61.497,41.527l8.885-7.456c1.267-1.064,3.173-0.896,4.236,0.371l0,0
			c1.063,1.268,0.37,3.139-0.868,4.237l-8.39,7.456c-1.235,1.099-3.171,0.896-4.236-0.371l0,0
			C60.062,44.498,60.229,42.589,61.497,41.527L61.497,41.527z"/>
		<path id="path1047_5_" fill="#2C6698" d="M16.991,86.955C10.12,80.2,9.618,68.591,15.877,61.173l1.464-1.732l3.212,3.158
			l-1.464,1.733c-4.652,5.512-4.277,14.137,0.831,19.157l1.604,1.579l-2.926,3.466L16.991,86.955L16.991,86.955z"/>
		<path id="path1049_5_" fill="#2C6698" d="M11.276,96.338C-0.667,84.599-1.539,64.426,9.337,51.537l1.465-1.732l3.212,3.156
			l-1.462,1.734c-9.271,10.983-8.527,28.173,1.65,38.177l1.607,1.579l-2.926,3.466L11.276,96.338L11.276,96.338z"/>
		<path id="path1051_5_" fill="#2C6698" d="M157.254,110.929h9.584v3.921c2.19-1.84,4.161-3.114,5.94-3.824
			c1.769-0.721,3.584-1.083,5.437-1.083c3.81,0,7.033,1.334,9.692,3.992c2.235,2.249,3.341,5.58,3.341,10.005v25.323h-9.511v-16.798
			c0-4.582-0.205-7.624-0.612-9.127c-0.41-1.504-1.13-2.646-2.152-3.44c-1.025-0.781-2.273-1.178-3.778-1.178
			c-1.96,0-3.63,0.65-5.027,1.961c-1.394,1.298-2.367,3.103-2.91,5.398c-0.274,1.202-0.42,3.799-0.42,7.791v15.392h-9.584V110.929z"
			/>
		<path id="path1053_5_" fill="#2C6698" d="M224.016,116.293l-5.951,5.952c-2.416-2.392-4.604-3.595-6.577-3.595
			c-1.082,0-1.937,0.228-2.538,0.685c-0.612,0.458-0.924,1.034-0.924,1.709c0,0.516,0.205,0.997,0.587,1.43
			c0.386,0.434,1.349,1.022,2.875,1.78l3.511,1.756c3.716,1.839,6.264,3.702,7.648,5.603c1.383,1.9,2.081,4.137,2.081,6.698
			c0,3.402-1.251,6.239-3.753,8.525c-2.5,2.271-5.855,3.413-10.051,3.413c-5.593,0-10.053-2.188-13.396-6.553l5.926-6.445
			c1.12,1.312,2.443,2.382,3.959,3.187c1.514,0.807,2.861,1.215,4.04,1.215c1.262,0,2.284-0.3,3.052-0.914
			c0.783-0.613,1.167-1.311,1.167-2.115c0-1.479-1.394-2.922-4.185-4.33l-3.247-1.623c-6.206-3.125-9.296-7.034-9.296-11.723
			c0-3.03,1.168-5.628,3.501-7.769c2.333-2.152,5.325-3.234,8.968-3.234c2.489,0,4.824,0.553,7.021,1.647
			C220.637,112.687,222.502,114.249,224.016,116.293L224.016,116.293z"/>
		<path id="path1055_5_" fill="#2C6698" d="M303.861,110.929h9.583v32.84c0,6.479-1.31,11.255-3.92,14.296
			c-3.498,4.137-8.765,6.205-15.814,6.205c-3.75,0-6.911-0.469-9.473-1.407c-2.563-0.938-4.728-2.32-6.482-4.136
			c-1.767-1.828-3.066-4.041-3.908-6.649h10.606c0.938,1.082,2.142,1.899,3.618,2.452c1.481,0.553,3.236,0.831,5.256,0.831
			c2.586,0,4.655-0.397,6.229-1.203c1.575-0.794,2.681-1.828,3.331-3.103c0.648-1.262,0.974-3.451,0.974-6.553
			c-1.697,1.695-3.464,2.91-5.326,3.655c-1.854,0.733-3.956,1.105-6.302,1.105c-5.146,0-9.487-1.851-13.034-5.567
			c-3.549-3.703-5.314-8.405-5.314-14.093c0-6.083,1.875-10.965,5.625-14.657c3.417-3.331,7.468-5.002,12.194-5.002
			c2.212,0,4.293,0.408,6.254,1.227c1.958,0.805,3.932,2.14,5.903,3.992V110.929L303.861,110.929z M293.895,118.939
			c-3.031,0-5.534,1.009-7.505,3.042c-1.972,2.032-2.958,4.581-2.958,7.659c0,3.199,1.011,5.82,3.03,7.854
			c2.01,2.043,4.544,3.066,7.6,3.066c2.981,0,5.447-0.999,7.383-2.995c1.938-1.995,2.909-4.606,2.909-7.853
			c0-3.198-0.972-5.783-2.923-7.78C299.484,119.937,296.971,118.939,293.895,118.939L293.895,118.939z"/>
		<path id="path1057_5_" fill="#2C6698" d="M351.491,110.929h9.582v38.334h-9.582v-4.052c-1.877,1.792-3.764,3.066-5.651,3.86
			c-1.901,0.781-3.945,1.177-6.156,1.177c-4.954,0-9.236-1.923-12.854-5.758c-3.619-3.836-5.424-8.61-5.424-14.322
			c0-5.915,1.745-10.761,5.241-14.55c3.501-3.775,7.757-5.674,12.759-5.674c2.297,0,4.461,0.445,6.483,1.31
			c2.02,0.866,3.883,2.176,5.603,3.909V110.929L351.491,110.929z M341.377,118.83c-2.98,0-5.458,1.048-7.429,3.151
			c-1.973,2.105-2.959,4.797-2.959,8.081c0,3.318,0.997,6.035,3.007,8.176c2.006,2.141,4.484,3.212,7.418,3.212
			c3.028,0,5.542-1.059,7.541-3.163c1.995-2.093,2.992-4.846,2.992-8.262c0-3.33-0.997-6.035-2.992-8.093
			C346.956,119.865,344.433,118.83,341.377,118.83L341.377,118.83z"/>
		<path id="path1059_5_" fill="#2C6698" d="M244.251,98.49v12.474h5.7v8.285h-5.7v17.519c0.083,0.86,0.206,1.48,0.367,1.868
			c0.342,0.778,0.888,1.396,1.65,1.868c0.761,0.453,1.85,0.688,3.266,0.688c0.262,0,0.544-0.007,0.847-0.022v8.88
			c-0.788,0.061-1.546,0.07-2.48,0.07c-3.485,0-6.167-0.543-8.094-1.65c-1.903-1.089-3.244-2.542-4.028-4.337
			c-0.745-1.71-1.082-5.263-1.111-10.63V133.5v-0.019v-14.234h-4.929v-8.284h4.929v-6.021
			C238.745,104.331,242.226,101.893,244.251,98.49L244.251,98.49z"/>
		<path id="path1061_5_" fill="#2C6698" d="M257.909,110.762h9.919v38.75h-9.919V110.762z M257.909,100.795h9.919v6.73h-9.919
			V100.795z"/>
		<path id="path1063_5_" fill="#2C6698" d="M380.808,98.452v12.473h5.697v8.286h-5.697v17.518c0.081,0.86,0.202,1.482,0.364,1.867
			c0.345,0.781,0.89,1.397,1.649,1.869c0.764,0.455,1.854,0.689,3.269,0.689c0.262,0,0.542-0.007,0.845-0.023v8.882
			c-0.785,0.06-1.543,0.07-2.479,0.07c-3.484,0-6.17-0.545-8.092-1.651c-1.907-1.09-3.248-2.542-4.029-4.339
			c-0.748-1.709-1.081-5.262-1.112-10.629v-0.001v-0.02v-14.233h-4.932v-8.286h4.932v-6.02
			C375.301,104.293,378.779,101.856,380.808,98.452L380.808,98.452z"/>
		<circle id="circle1065_5_" cx="440.57" cy="169.915" r="2.404"/>
		<circle id="circle1067_5_" cx="226.773" cy="159.379" r="2.404"/>
		<path id="path1069_5_" fill="#2C6698" d="M431.432,132.609h-30.223c0.435,2.656,1.611,4.773,3.504,6.35
			c1.896,1.576,4.305,2.363,7.246,2.363c3.515,0,6.537-1.235,9.063-3.693l7.926,3.729c-1.974,2.799-4.339,4.869-7.104,6.22
			c-2.75,1.342-6.019,2.012-9.815,2.012c-5.882,0-10.665-1.858-14.36-5.563c-3.702-3.716-5.549-8.36-5.549-13.935
			c0-5.727,1.847-10.466,5.528-14.251c3.691-3.774,8.313-5.667,13.862-5.667c5.904,0,10.701,1.893,14.403,5.667
			c3.691,3.786,5.55,8.772,5.55,14.969L431.432,132.609L431.432,132.609z M421.988,125.201c-0.624-2.094-1.848-3.787-3.668-5.104
			c-1.822-1.305-3.953-1.963-6.361-1.963c-2.613,0-4.916,0.74-6.893,2.21c-1.235,0.918-2.387,2.54-3.443,4.857H421.988
			L421.988,125.201z"/>
	</g>
</g>
</svg>
